<svg height="41" viewBox="0 0 120 41" width="120" xmlns="http://www.w3.org/2000/svg"><path d="m635.014783 27.2807263v-1.61178c-.955088 1.1304688-2.64084 2.261845-4.776297 2.261845-2.922226 0-4.382697-1.6371839-4.382697-4.5531765v-9.8847978c0-.1614955.123776-.2925973.276247-.2925973h2.397143c.152899 0 .276247.1311018.276247.2925973v8.7243888c0 2.2319047 1.068157 2.9459328 2.75348 2.9459328 1.489167 0 2.78132-.9227021 3.455877-1.8748907v-9.7954309c0-.1614955.123776-.2925973.276676-.2925973h2.397143c.152471 0 .276247.1311018.276247.2925973v13.7879093c0 .1614956-.123776.2930509-.276247.2930509h-2.397143c-.1529 0-.276676-.1315553-.276676-.2930509zm9.438369-1.7006933v7.1761182c0 .1614956-.123348.2925973-.276248.2925973h-2.397142c-.152472 0-.276248-.1311017-.276248-.2925973v-19.2633342c0-.1614955.123776-.2925973.276248-.2925973h2.397142c.1529 0 .276248.1311018.276248.2925973v1.6716604c1.011622-1.4285098 2.585162-2.3212717 4.355287-2.3212717 3.511555 0 6.011915 2.7971392 6.011915 7.5290495 0 4.731003-2.50036 7.5585361-6.011915 7.5585361-1.714019 0-3.231024-.8333352-4.355287-2.3507583zm7.332763-5.2077778c0 2.7971392-1.517005 4.7908834-3.848619 4.7908834-1.376954 0-2.837425-.8927619-3.484144-1.9642577v-5.6836453c.674558-1.0710421 2.10719-1.9043772 3.484144-1.9043772 2.331614 0 3.848619 1.963804 3.848619 4.7613968zm15.165385 7.2012952c-.152471 0-.276675-.1311017-.276675-.2930509v-8.7538753c0-2.2613913-1.067301-2.9159927-2.724785-2.9159927-1.517434 0-2.809158.9526423-3.483716 1.904831v9.765037c0 .1619492-.123776.2930509-.276247.2930509h-2.398c-.152043 0-.275819-.1311017-.275819-.2930509v-19.26333424c0-.16149554.123776-.29259727.275819-.29259727h2.398c.152471 0 .276247.13110173.276247.29259727v7.11759874c.898982-1.1313761 2.64084-2.2917851 4.775869-2.2917851 2.922226 0 4.382697 1.60679 4.382697 4.5531765v9.8843441c0 .1619492-.123776.2930509-.275819.2930509zm5.397447-7.2012952c0-4.1367357 2.641268-7.5290495 6.968288-7.5290495 4.326592 0 6.967432 3.3923138 6.967432 7.5290495 0 4.1058882-2.64084 7.5585361-6.967432 7.5585361-4.32702 0-6.968288-3.4526479-6.968288-7.5585361zm10.873442 0c0 2.5589786-1.376954 4.7908834-3.905154 4.7908834-2.500789 0-3.905582-2.2319048-3.905582-4.7908834 0-2.5294921 1.404793-4.7613968 3.905582-4.7613968 2.5282 0 3.905154 2.2319047 3.905154 4.7613968zm5.786078 6.9084711v-19.26333422c0-.16194918.123776-.29259727.276247-.29259727h2.397143c.152899 0 .276675.13064809.276675.29259727v19.26333422c0 .1614956-.123776.2930509-.276675.2930509h-2.397143c-.152471 0-.276247-.1315553-.276247-.2930509zm16.041667.0001815v-1.6716604c-1.039461 1.4285098-2.584734 2.3212717-4.35443 2.3212717-3.455877 0-6.012772-2.7971392-6.012772-7.5580824 0-4.6429971 2.528199-7.5295032 6.012772-7.5295032 1.71359 0 3.286702.8038486 4.35443 2.3512119v-7.1770255c0-.16149555.123776-.29259727.276248-.29259727h2.397142c.1529 0 .276676.13110172.276676.29259727v19.2637879c0 .1614955-.123776.2925972-.276676.2925972h-2.397142c-.152472 0-.276248-.1311017-.276248-.2925972zm0-4.0519052c-.64629 1.0705885-2.10719 1.9343175-3.484144 1.9343175-2.359881 0-3.848619-1.9941979-3.848619-4.7908834 0-2.7676527 1.488738-4.7613969 3.848619-4.7613969 1.376954 0 2.837854.8623681 3.484144 1.9338638zm-99.757834 14.4916398c.680982-.2127568 1.395371.1982403 1.596239.9190729.201297.7208327-.187591 1.4779565-.868145 1.6911669-1.419355.4441128-2.842993.6691178-4.231939.6691178h-.169603c-1.397941 0-2.831001-.2272732-4.258922-.6777369-.680126-.2136641-1.067729-.9716952-.865575-1.6920742.202581-.720379.918255-1.1300152 1.597952-.9168048 1.190219.3751596 2.376584.5647808 3.526545.5647808h.169603c1.141823 0 2.320907-.1878066 3.503845-.5575225zm9.408731-27.7002065c1.219772 3.7620297.783772 8.8105802-1.168377 13.5134576-2.664395 6.4167262-7.49894 10.8741848-11.780561 10.8746385-.020558 0-.040688 0-.060817-.0004537-.020558.0004537-.041116.0004537-.061246.0004537-4.281621 0-9.116165-4.4574586-11.780561-10.8746385-1.952149-4.7019701-2.38772-9.7505206-1.168377-13.5125503l-.00257-.0009073c1.815096-5.99348088 7.044096-10.0204359 13.011469-10.0204359 5.951954 0 11.167249 4.00654126 12.995622 9.9741647.002141.00771186.005568.01497009.008566.02268195.000856.00362915.001713.00725825.002998.01088735.001284.0045364.002998.0081655.004283.0127019zm-3.128663 12.6002819c-.836451 2.0137043-1.9166 3.8205492-3.114101 5.3075784.865147-3.5978123.448421-8.2448921-1.424923-12.757241-.979072-2.3584701-2.277221-4.4792333-3.783519-6.20805224 2.357312-2.01733344 4.811845-2.67601754 6.709173-1.74696449 1.215488.59472097 2.153016 1.81274217 2.711079 3.52250823 1.05745 3.2376229.647147 7.6796577-1.097709 11.8821711zm-19.762613 0c-1.744428-4.2020597-2.15473-8.6440946-1.097709-11.8821711.558491-1.70976606 1.496019-2.92778726 2.71108-3.52250823 1.897755-.92859941 4.352289-.26991531 6.709172 1.74696449-1.506726 1.72927254-2.804447 3.85003574-3.783091 6.20805224-1.873771 4.5123489-2.290498 9.1594287-1.424923 12.7576947-1.197929-1.4874829-2.278078-3.2943278-3.114529-5.3080321zm11.649933 9.1040848c-.544786.2667398-1.14011.406007-1.768412.4146262-.628731-.0086192-1.223627-.1478864-1.768412-.4146262-3.652463-1.7873384-4.391264-8.9498475-1.613371-15.6410254.880994-2.1225777 2.038663-4.0274087 3.379213-5.5693282 1.341406 1.5423732 2.502074 3.4449359 3.384352 5.5693282 2.777893 6.6911779 2.039092 13.853687-1.61337 15.6410254zm-1.768412 1.4303243.000856.0988933-.000856.0998007-.001285-.0998007zm6.72716-28.60920866c-2.164152-.09526423-4.522749.88505005-6.726732 2.83932764-2.203983-1.95473123-4.563436-2.93595278-6.728445-2.84068855 1.909747-1.44620172 4.241361-2.27636142 6.726732-2.27636142 2.486227 0 4.818697.83106698 6.728445 2.27772233z" fill="#49cc68" fill-rule="evenodd" transform="translate(-588)"/></svg>