<svg height="24" viewBox="0 0 21 24" width="21" xmlns="http://www.w3.org/2000/svg"><g fill="none" fill-rule="evenodd" transform="translate(-.862 .486)"><path d="m20.4554762 10.0981105c1.2131637.6880301 1.2094099 1.8056924 0 2.4916134l-17.2721929 9.7959847c-1.21316369.6880501-2.19662718.1260336-2.19662718-1.2686328v-19.54599655c0-1.38869659.9872173-1.95457012 2.19662718-1.26866899z" fill="#bccad8"/><path d="m16.0756762 15.0737428-12.8923929 7.3119658c-.7936594.4501267-1.48901034.3652425-1.87500578-.1377796l10.89774168-11.0858472z" fill="#8494a5"/><path d="m1.37514695.36488377c.39700849-.43206943 1.06006789-.48673083 1.80813635-.06247351l12.7916705 7.25463004-3.7707747 3.6076117z" fill="#e4eaf2"/><path d="m1.33496719 22.2814494c-.22042569-.2668014-.34831107-.6614504-.34831107-1.1643736v-19.02479952l.0043022-.67712678c.02554609-.45432298.16370877-.80997966.38364985-1.04967896l10.83090083 10.79591446z" fill="#bccad8"/></g></svg>