<svg height="40" viewBox="0 0 40 40" width="40" xmlns="http://www.w3.org/2000/svg"><g fill-rule="evenodd"><path d="m27.191437 31.9016374h4.7901466v-4.7623392h-4.7901466zm3.1744281 3.1853801c-.0632258.0060819-.1264516.01731-.1896774.0174269-.9311437.0010527-1.8624047.0008188-2.7935484.0008188h-.1818182c-.0357771.2567251-.0254545 1.4690058.0104399 1.5921637h3.1603519c.0049267-.0373099.0118475-.0651462.0118475-.0930994.0007038-.4671345.0010557-.9341521-.0003519-1.4014035-.0001173-.0396491-.0133724-.0792983-.0201759-.1185965.0452785.0069006.0906744.0197661.135953.02.4588857.0014035.9177713.0014035 1.3766569 0 .0453959-.000117.0907918-.0125146.1361877-.0191813-.0068035.0454971-.0195894.0911111-.0197067.1368421-.0014077.4493567-.0011731.8989474-.0004692 1.348538.0001173.0394152.0070381.0788304.012434.137193.0753079 0 .1439296-.000117.2125513 0 .9953079.0011696 1.9906158.0024561 2.986041.0038596v1.5523977c.193783.0373099 3.0351907.0301754 3.158827-.0059649.0367156-.3612866.0192376-3.0209357-.0197067-3.1396491h-1.5529619v.5356725c0 .1752047.0036364.3506433-.0009384.525731-.0045748.1721637.0207624.3461988-.0187683.5278362-.0794135 0-.1488563-.0003508-.2182992.000117-.4510264.0026901-.9019354.005614-1.3528445.0084211v-3.1890059h-1.6145455v1.5699415c-.0521994.0033918-.0860997.0077193-.1201173.0077193-.4510264.0004679-.9022874.0005848-1.3534311-.0003509-.0343695-.0001169-.0686217-.0097076-.1035777-.014269-.0049267-.0576608-.0140762-.1152046-.0143108-.1727485-.0011731-.4032749-.0005866-.8064327-.0005866-1.2098246v-.1818713h-1.5990615c-.0029326.0659649-.007742.1230409-.0078593.1802339-.0005865.4032749.0004692.8065497-.0010557 1.2097076-.0002346.057193-.0113783.114269-.017478.171345zm4.8323754-9.5700584c.451261.0030409.902522.0063158 1.3536657.0092397.0695601.0004679.1391202.000117.2327272.000117.0082112.2190643.0030499.4271345.0039883.6348538.0009384.2105263.0001173.4209357.0001173.631462v.6490058.631462.6422222h3.1567155c.0407039.13731.0506745 1.3574269.0150147 1.5985965h-4.7334897c-.0419942.1452632-.0553666 1.1369591-.0242816 1.5923977.2224047.0130994.4486804.0038596.6743695.005614.2227566.0016375.4455132.0003509.6683871.0003509h.6860998.6860997.6860997.6683871.69478v7.9349708c-.1210557.0368421-10.8863343.0507602-11.17478.0116959v-1.560117h-3.2c-.0126687.1674854-.0037537.3408187-.0053959.5134503-.0016423.1694737-.0003519.3390643-.0003519.508538v.5211696c-.1295015.0424561-2.8986511.057076-3.1793549.02-.0059824-.0094737-.0171261-.0190643-.0171261-.028538.0004692-.5140351.0017596-1.0283041.0030499-1.5423392l-.0048094.0037427c.5246921-.0044444 1.0493842-.0090058 1.5878006-.0136842v-1.5700585l-.0055132.0054971c.0641642-.0030409.1283284-.0084211.19261-.008538.4100879-.0008187.8201759 0 1.2302639-.0008187.0615836-.000117.1231671-.005731.1820528-.008538v-1.5934503c-.0734311 0-.1365396.0002339-.1995308-.000117-.4685044-.002924-.9370088-.0059649-1.4053959-.0090058l.0052786.0043274c.0012903-.9822222.0025806-1.9644444.0038709-2.9467836.0001173-.0698246 0-.1397661 0-.2320468.1798241-.0189473.3539003-.0067836.5268036-.0088889.175953-.0022222.3517888-.0004678.5277419-.0004678h.5393548v-3.1850292c-.1668035-.0177778-.3408797-.0054971-.513783-.0074854-.1758357-.0022222-.3517888-.0005848-.5277419-.0005848h-.5453372-.5278593-.5277419-.5146041c-.0153666-.0244445-.0265103-.0339181-.0265103-.0433918.0004692-.514269.0017596-1.0284211.0030499-1.5426901l-.0048094.0039766c.0641642-.002807.1284457-.0080702.19261-.0080702.9316129-.0004678 1.8632258-.0002339 2.794956-.0007017.0673314 0 .13478-.0044445.1996481-.0067836v-1.5953217h-.1996481c-.9257478 0-1.8516129.0002339-2.7773607-.0003508-.0700294 0-.1400587-.0051462-.2102053-.0079533l.0044575.0044445v-1.5826901l-.0044575.0044445c.5248094-.0045614 1.0495015-.0091228 1.5873314-.0136842v-1.6054971l-.0043402.0044444c.181349.0012866.3626979.003041.5441642.0037427.1756012.0007018.3512024.0015205.5268035-.0002339.1782992-.0016374.3574194.0076023.5443989-.0069006 0-.0930994-.0002346-.1624561.0001173-.2318129.0026979-.4491228.0055132-.8983625.0083284-1.3476023l-.0044575.0044445h1.5873314l-.0044575-.0044445c.0028153.0640936.0079766.1281871.0080939.1921638.0004692.9290058.0001173 1.8580116.0005865 2.7870175.0001173.0671345.0045748.134269.0069208.1987134h1.6036364v-1.5792982h1.5874487c.0129032.5335673-.0069209 1.0564912.0113783 1.579883h3.1829912c.0048093-.0378947.0113783-.0659649.0113783-.094035-.0005866-1.0281872-.0017596-2.0564913-.0028153-3.0847954l-.0068035.0065497c.3900293-.0033918.7801759-.0091228 1.1703226-.0088889.1560117.000117.3121407.0132164.4682698.0203509l-.0030499-.0032748c-.0060997.045497-.017478.0909941-.017478.1364912-.0009384 1.5065497-.0008211 3.0129825-.0003519 4.5195322 0 .0346198.0056305.0694736.0086803.1042105-.5354838.0031579-1.0707331.0063158-1.6057478.0094737v1.5865497h1.6014077zm1.455214-23.91812869h-4.5066275c-.9639883 0-1.7465103.77649123-1.750264 1.73766082-.0052785 1.34152047-.0029325 3.18584795.0057479 4.51824561.0060997.94339181.7748973 1.70409357 1.7210557 1.70409357h4.5256305c.9479179 0 1.7163636-.76619883 1.7163636-1.71134503v-4.54175439c0-.94269005-.7664516-1.70690058-1.7119062-1.70690058m.853959 9.55228069h-6.3411144c-1.299824 0-2.3534311-1.0509941-2.3534311-2.34701753 0-2.13076024 0-4.25976608-.0001173-6.38842106 0-1.32502924 1.0739003-2.40046783 2.4028153-2.40631578 1.8836363-.0083041 4.4913783-.01146199 6.3706745-.00783626 1.3160117.00269006 2.3806451 1.0671345 2.3806451 2.37929824v6.31812866c0 1.35426903-1.1012316 2.45216373-2.4594721 2.45216373m-35.90378887-7.85614034v4.52596491c0 .96023392.78064516 1.73859649 1.74369502 1.73859649h4.54662756c.92609971 0 1.67765396-.74608187 1.68129033-1.66935672.0056305-1.37216374.00422287-3.30362573-.00340176-4.6645614-.00504399-.90210527-.73970675-1.63052632-1.64457478-1.63052632h-4.61876833c-.94158358 0-1.70486804.76105263-1.70486804 1.69988304m.72868036-3.28222222h6.43214076c1.32211145 0 2.39530795 1.06573099 2.40093845 2.38397661.0079765 1.88584795.0105571 4.5051462.0058651 6.38678362-.0030499 1.30783623-1.0674487 2.36561403-2.37900297 2.36561403h-6.41689149c-1.30416422 0-2.36140763-1.054152-2.36140763-2.35461988v-6.47005848c0-1.27672514 1.03800587-2.3116959 2.31835778-2.3116959m-.72937244 31.99201166v4.5985965c0 .9288889.75284458 1.6826901 1.68434018 1.6864328 1.36058651.005497 3.2632258.0033918 4.6172434-.0050293.92844575-.005614 1.67800586-.7556725 1.68035191-1.6814035.00340175-1.3548538-.00058652-3.2548538-.00973608-4.6107602-.006217-.9267836-.76175953-1.674269-1.69137829-1.674269h-4.58944282c-.93407625 0-1.6913783.7549707-1.6913783 1.6864327m9.56011735-.891228v6.3750877c0 1.311462-1.0632259 2.3760234-2.37853377 2.3817544-1.88434018.0083041-4.50392962.0111111-6.39002933.0065497-1.31695014-.0032749-2.38217008-1.068772-2.38217008-2.3819883v-6.3814035c0-1.3154386 1.06956011-2.3818714 2.3888563-2.3818714h6.37302053c1.31929615 0 2.38885635 1.0664328 2.38885635 2.3818714m6.4446334-10.3661989c-.0031672.0698246-.0091496.1396492-.0091496.2094737-.0004692 1.9808187-.0004692 3.9616374-.0004692 5.9425731v.2278363h-1.606217v1.5906432h-1.5892082v1.565848c-.1332551.0452632-1.282698.0597661-1.5852199.0252632-.035308-.1236258-.043871-2.9569591-.0069209-3.1750878h1.5757185c.0037537-.0759064.0092669-.1373099.0093842-.1989473.0008211-.4090059 0-.8180117.0008211-1.2270176.0001173-.0639766.006217-.1279532.0096188-.1919298l-.006569.0066667h1.5736071c.0384751-.2790644.0252199-3.0575439-.0184164-3.1975439h-1.5587097v-3.9808187-3.9760234h-.2286217c-1.4598241 0-2.9196481.000117-4.37958946-.0003509-.07002933 0-.14017596-.005614-.21032259-.008538l.0052786.0042105v-1.5529824c.14087976-.0389474 7.72269795-.0526316 8.00304985-.0175439v1.5713451h-1.5833431v3.1939181c.5258651.0065497 1.0495015.0011696 1.5916715.0033918v-1.5791813h3.170088v1.5721638c-.1686803.014152-.3426393.0044444-.5157771.0061988-.170088.0017544-.3400587.0003509-.5100293.0003509h-.5448681v.2059649c0 .9294737.0004692 1.8589473-.0008211 2.7883041-.0001173.0691228-.0127859.1381286-.0193548.2069006.0002346-.000234.0045748-.0040936.0045748-.0040936-.0109091-.0042105-.0217009-.0121638-.03261-.0121638-.5139003.0014036-1.0279179.0035088-1.5419355.0053802-.0029325-.5238597-.0058651-1.0477193-.0087976-1.5746199h-1.5924927v1.5704093z"/><path d="m31.9957302 15.9794854c.0408211-.002924.0815249-.0083041.122346-.0083041.9671555-.0004678 1.9344282-.0004678 2.9015836 0 .0513783 0 .1026393.005614.1636364.0091228v1.5757895h-1.5890909c-.0029326.0821052-.0075074.1494737-.0075074.2167251-.0003519.9235088 0 1.8470176-.0007038 2.7704094 0 .0698245-.0063343.1396491-.009736.2095906l.0066862-.0065497c-.5253959-.0022222-1.0509091-.0044444-1.5933138-.0067836v-1.5646784h-1.5994135c-.0191202.525731.0093842 1.0422222-.0164223 1.5678363-.0896187 0-.1592962 0-.2288563 0-.9904985.0012865-1.9809971.00269-2.9714956.0039766l.0044575.0044444v-1.5677193c-.242346-.0362573-1.4626393-.0266666-1.5873314.0111111v1.5566082l.0043402-.0044444c-.181349-.0012866-.3628153-.0031579-.5442815-.0037427-.1756012-.0007018-.3512024-.0015205-.5268036.0002339-.1782991.0016374-.3574193-.0076023-.5443988.0069006 0 .0929825.0003519.1624561-.0001173.2318129-.0025806.4491228-.0055132.8983625-.0082111 1.3476023l.0043402-.0045614h-1.5873314l.0048094.0039766c-.0029326-.0639766-.0083285-.1279532-.0083285-.1919298-.0003519-2.5214035-.0004692-5.042807.0004692-7.5642105.0001173-.0747369.0127859-.1495907.0193549-.2240936-.0002346.0002339-.0045748.0040936-.0045748.0040936.0578299.0052631.1155425.0148538.1732551.0149707.4044575.0012866.808915.0004679 1.2133724.0010526.0573607.000117.1147215.0046784.1870968.0078363v1.5864328c.0821115.0029239.1495601.0074853.2170088.0074853 1.8756598.0003509 3.751437.000117 5.6270968.0007018.1873314.0001169.3746627.0053801.5619941.0083041l-.0038709-.0047953c.0045747.5239766.0092668 1.0479532.0138416 1.5691228.248563.034269 1.4667449.0237427 1.6016422-.0148538 0-.0654971-.0003519-.1348538 0-.2042106.002698-.4500584.0055132-.9.0083285-1.3500584zm-8.0279648-12.7780585c.003871.19204678.0097361.38409357.0111437.57614035.0019941.27415205.0001173.5483041.0009384.82245614.0001173.05695907.0048094.11391813.0079765.18444445h1.588739c.0037537.07473684.0092669.13602339.0093842.19730994.0008211.41415204-.0004692.82830409.0014076 1.24245614.0003519.06292397.0136071.12584795.0206452.18865497-.0459824-.0071345-.0916129-.02-.1373607-.02011696-.4511437-.00152047-.9022874-.00116959-1.3534311-.00046784-.0395308.00011696-.0791789.00690059-.1277419.01134503v1.56807018h1.5889736c.0030498-.06701755.0077419-.12409357.0077419-.18128655.0007038-.40304094-.0003519-.80608187.0012903-1.20923977.0001173-.05707602.011261-.11415204.0173607-.17122807.0340176-.00596491.0680352-.01707602.1019355-.01719298.4572434-.00116959.9143695-.00081871 1.3716129-.00035088.0279179.00011696.0559531.00479532.0946628.0083041.0031671.05286549.0083284.09789473.0083284.14292397.0003519 2.02783626.0005865 4.05567248-.0004692 6.08362578-.0001173.0571929-.013607.1143859-.0207624.1716959l.0032844-.0031579c-.057478-.0059649-.1148387-.0170761-.1723167-.017193-.4046921-.0015205-.8092669-.0005848-1.2139589-.0012866-.0572434 0-.1144868-.0047953-.1886217-.0081871v-3.17192983h-1.6059824v3.17719303c-.542522.0024561-1.0680352.0047953-1.5935484.0071345l.0042228.0052631c-.0029325-.0699415-.008563-.1397661-.008563-.2095906-.0005865-.9288889-.0004692-1.8577778-.0004692-2.78666669v-.20187135h-1.6154839l.0044575.00491228v-1.62l-.0044575.00491228h1.6056305v-1.58269005h-1.6056305l.0044575.00479532v-1.60935673h1.608563v-1.58573099h1.5904986c0 .00011696-.0044575-.00409357-.0044575-.00409357m11.2470147 17.5628187c-.0070382-.0397661-.0199414-.0795321-.0200587-.1194152-.0014076-.4618713-.0009384-.9237427-.0004692-1.385731.0001173-.022807.0043402-.045614.008915-.0920468.2614662-.0010526.5226979-.0025731.7839296-.0031579.2639296-.0005848.5278592-.0001169.7916715-.0001169h.7741936.7858064c.0405865-.1320468.0530206-1.3148538.0171261-1.6012866h-1.5581231v-4.7527485c.1219941-.0391813 1.3006451-.0508772 1.5699706-.0136842v3.1711111c.2775367.0012865.5388857.002924.8.0035088.2628739.0005848.5258651.0001169.8001173.0001169v4.7684211c-.2612316.0011696-.5225806.002807-.783695.0032748-.2628739.0005848-.5258651.000117-.8001173.000117v1.5887719h1.5851027v3.1826901h-1.5956599v-1.5757895h-1.5753665v-3.1708772c-.0418769-.0105263-.0686217-.0230409-.0953666-.0231579-.474956-.0012865-.9500293-.0012865-1.4249853-.0004678-.0221701.0001169-.0444575.0107602-.0662757.0168421.0002346.0003509.0032845.0036257.0032845.0036257m-19.2283637-14.36871344c-.9849853-.00128655-1.9699707-.00245614-2.954956-.00374269-.0701466-.00011696-.1401759 0-.2071554 0-.0425807-.12643274-.0565396-1.28807017-.0192376-1.59719298.520352-.01391813 1.0449267.00292398 1.5795895-.0097076v-1.58479532h-1.5856892v-1.57883041h1.5927273v-1.60070176c.5338417-.00619883 1.0521994-.00163742 1.5941349-.00327485.0104399.21894737.003871.42701754.005044.63461988.001173.21052632.0003519.42093568.0003519.63146199v.63134503.63134503.64035088h1.6036364v-1.55450293h3.1691495v1.56444445h-1.5705572v.20350877c0 .9354386.0004693 1.87087719-.0008211 2.80619883-.0001173.06900585-.0134897.1380117-.0207624.20690058l.0032844-.00304093c-.0279179-.00596491-.0559531-.01707602-.0839882-.01707602-.4960704.00011695-.9921408.00152046-1.4880939.00269005l.0042229.00526316c-.0030499-.06397661-.0084458-.12795321-.0085631-.19204678-.0008211-.40888889 0-.81777778-.0008211-1.22666667-.0001173-.06140351-.0057478-.12280702-.0086803-.18152047h-1.5980059c0 .07368421.0002346.13637427-.0001173.19906433-.0029325.46701754-.0059824.93415205-.008915 1.40116959zm-14.39190614 11.16107604c.00117302-1.0284211.00246335-2.0567252.00304986-3.0851462 0-.0279532-.00703813-.0559064-.01302053-.1012866h-1.57090909v-1.5805848h7.97501466v1.5740351h1.5941349l-.00527859-.0042105c.00293255.1276023.00891495.2552047.00832844.382924-.00152492.4123976-.00539589.8249123-.00832844 1.2374269l.00422287-.0052632c-1.0688563.000117-2.13759531.000117-3.20645161.0002339l.00492668.0044445c.00140763-.1810526.00328446-.3619883.00398827-.542924.00058651-.1750877.00117302-.3502924-.0001173-.5254971-.00152493-.1777777.00609971-.3562573-.00527859-.5306432h-3.19706745v.2003508c0 .9283041.0002346 1.8566082-.00035191 2.7850293 0 .0639766-.00516129.1279532-.00797654.1919298l.00445748-.0044444c-.52961877-.000234-1.05912023-.0004679-1.5886217-.0007018zm20.79843984 20.7344795h-1.6145454v1.5759065h-1.5719648v-3.151696c.5171847-.0205847 1.0354252.0039767 1.5614076-.0134502v-1.5932164h-1.5652786c-.0036363-.0798831-.0084457-.1368421-.008563-.1936842-.0005865-.4033918.0003519-.8069006-.0011731-1.2102924-.0002346-.05731-.011261-.114503-.0173607-.1719299l-.0031671.0033919c.0516129-.0071345.1031085-.0204679.1546041-.0204679.9669208-.0012865 1.9337243-.0010526 2.9006452-.0005848.0456305.000117.0911436.0064328.1542522.0111111v1.574386h1.5939002l-.0052785-.0043275c.0030498.1392983.0089149.2784796.0084457.4177778-.0014076.4009357-.0053959.8017544-.0084457 1.2025731l.0055131-.0054971h-1.5878005v1.5837427zm-8.0085044 1.577462h-1.5843988v-7.9533333c.5259824-.0059649 1.0495015-.0017544 1.5843988-.002924z"/><path d="m1.59422874 20.7515088c.0001173-.5277193.0001173-1.0553217.0002346-1.583041l-.00527859.0042106c.06416422-.002924.12832845-.0083041.19249267-.008538.40410557-.0008188.80821114 0 1.21231671-.0007018.0567742-.000117.11366569-.0049123.18381232-.0080702v-1.6023392l-.00445748.0043275h1.61560118v-.5350877c0-.1753216-.00117302-.3506433.0003519-.5258479.00140763-.1725147-.00703812-.345731.0057478-.51731h1.58510264l-.00480938-.0044444c.00293255.0465497.00832844.0929824.00844575.1395321.0003519.9580117.0003519 1.9159065 0 2.8739182 0 .0514619-.00492669.1029239-.00844575.1719298h-1.58005865v1.5748538c-.08304986.002924-.15049854.0073684-.21794722.0074854-.9256305.0004678-1.8513783.0002339-2.77700879.0004678-.07026393 0-.14041056.0026901-.21079179.0040936zm17.58121996 12.7812631c-.0572434-.0060818-.1144868-.017076-.1718475-.0173099-.4043402-.0015205-.8086804-.0004678-1.2131379-.0011696-.0572434-.000117-.1146041-.0047953-.1867448-.0081871v-1.5845614c-.1867449-.0182457-.3607038-.0070176-.5336071-.0090059-.1758357-.0018713-.3516715-.0003509-.5275073-.0003509h-.5384164v-1.5850292h1.5917888v-1.5978947h3.1702053v1.5908772h-1.5726686v.2036257c0 .9350877.0004692 1.8700585-.0009384 2.8050292 0 .0690059-.0129032.1380117-.0200587.2071345-.0001173.000117.0029326-.0031579.0029326-.0031579"/><path d="m1.58959531 20.7469357c.00281525.0581286.00821114.1163742.00821114.1745029.00046921 1.9980117.00035191 3.9959064.00035191 5.9939181l.00001303.2014035h-1.58230042v-6.3506432c.01325513-.0076024.0229912-.0180117.03260997-.0180117.51530792.0005848 1.03049853.0019883 1.54580645.0033918zm20.79934309-7.9654386c-.0015249.5015204-.0031671 1.0030409-.003871 1.5045614 0 .0223392.0092669.0447953.0145455.0670175.0002346-.0003509.0045748-.0043275.0048094-.0045614-.0573607.0065497-.114956.0189474-.172434.0189474-.9557772.0011696-1.911437.0010526-2.8670968.0003509-.0511437 0-.1021701-.0061989-.161173-.0100585v-4.76421054h1.5695014l-.0045747-.00479532c.0028152.06994152.0079765.13988304.0080938.20982456.0004692.9239766.0003519 1.8479532.0003519 2.7719298v.2072515c.0832845 0 .1462757-.0002339.2092669.0001169.4689736.002924.9379472.005965 1.4069208.0088889zm-4.7859003-6.38596494c-.0016422.07017544-.0046921.14023392-.0046921.2102924-.0002346 1.44421053-.0002346 2.88853801-.0002346 4.33274854v.2042105c-.1346627.0387135-1.3533137.0493568-1.6068035.0140351v-.2007017c0-1.45005852.0001173-2.90023396-.0002346-4.35029244 0-.07005848-.0030498-.14023392-.0046921-.2102924l-.0042228.00526316c.1279765-.00292397.2560703-.00888889.3840469-.00842105.4137243.00152047.8274487.00549708 1.241173.00842105zm4.789912 20.73761404c-.7201173-.0015205-1.4402346-.0031579-2.1603519-.0044444-.2810557-.0004679-.5621114-.000117-.8431671-.000117h-.183695v-3.1614035c.1205865-.040117 1.1497947-.0555556 1.5669208-.022807l-.0039883-.0047954c.0045748.5231579.0091496 1.0464328.0138417 1.5828071h1.6100879l-.0044574-.0045614v1.6191812z"/><path d="m12.798 11.164h1.589v-3.17h-1.589z"/><path d="m30.3796246 15.9794854c.001525-.6768421.0032845-1.3536842.0045748-2.0304094.0005865-.3267836-.0002346-.6535672.0004692-.9803509.0001173-.056959.0048094-.1138011.0078593-.1804678h1.5985923v.1980117c0 .9277193-.0001173 1.8555556.0001173 2.7833918.0001173.0699415.0029326.1398831.0044575.2098246l.0039883-.0047953h-1.6239296zm-15.9736422 9.5365614c-.0464516.0032748-.0929032.0097076-.1393548.0097076-.9821701.0005848-1.9643402.0005848-2.9465103 0-.0405865 0-.081173-.005848-.1218768-.0088889l.0043401.0043275c-.0001173-.5270176-.0002346-1.0540351-.0002346-1.5810526l-.0048093.0039766c.0173607-.0025731.0347214-.0071345.0519648-.0071345 1.0132551-.0005848 2.0265102-.0009357 3.0396481-.000117.0324926 0 .0649853.0116959.1103812.0203509v1.5654971zm-8.01061583.0197661h1.56645161c.03565983.1252631.0455132 1.3432748.01173021 1.5802339h-1.57818182z"/><path d="m11.1982757 25.5168421v1.6002339h-1.60129036v-1.5863158c.53489736-.0031579 1.07026396-.0064327 1.60563046-.0095906zm9.5699706-3.1875906c.5415836-.000117 1.0830499-.0003509 1.6247508-.0004679l-.0048094-.0038596v1.6191813l.0044575-.0044445h-1.6239297l.003871.0047953c.0001173-.54.0002346-1.079883.0002346-1.619766zm-9.5659003 1.6109356h-1.60469204v-1.5973099c.53325514-.0235088 1.06944284.0010526 1.60469204-.0134503l-.0048093-.0045614v1.6191813zm-4.802346-1.5985965h1.57876833v1.5832749h-1.56387097c-.03741935-.1178947-.05055718-1.2878363-.01489736-1.5832749m11.1871672 14.356503h-1.5666863c-.0354252-.1253801-.0449266-1.3479532-.0113783-1.5803509h1.5780646zm-1.58861 3.1640584v-1.5450292c.1269208-.0367251 1.3080352-.0490058 1.5868622-.0162573v1.5472515c-.1212904.0352046-1.3024047.0474853-1.5868622.014035m9.6095484-38.22116954c-.0071555-.03964913-.0202933-.07929825-.0204106-.11906433-.0015249-.46140351-.001173-.92292398-.0004692-1.38432749 0-.03380117.0066862-.06748538.011261-.11005848h1.5725513v1.58421053c-.0670968.00292398-.1242229.0077193-.181349.0077193-.4042228.00070175-.8084457-.00035088-1.2126686.00116959-.057478.00023392-.1148387.01122807-.1721994.01730994z"/><path d="m25.6047742 1.63789474c-.0060997.05695906-.0173607.11391813-.0175953.17087719-.0015249.39660819-.0008211.79309942-.0008211 1.18959064v.19730994c-.5479179.00198831-1.0831672.00397661-1.6185338.00584796-.0001173-.00011696.0044575.00409357.0043402.00397661.0024634-.44877193.005044-.89754386.0073901-1.34643275.0003519-.06935673.0001173-.13859649.0001173-.21707603.0405865-.00842105.0728445-.02081871.1051026-.02093567.4678006-.00128655.9357185-.00140351 1.4035191-.00011696.0398827.00011696.079648.0128655.119648.01988304.0001174.00011696-.0031671-.00292397-.0031671-.00292397m1.5554018 11.16102926c.0398827-.0070176.079648-.0198831.119648-.02.4627566-.0015205.9256305-.0011696 1.3885044-.0004679.0339003 0 .0676833.0067837.1103813.0113451v1.5677193h-1.588739c-.0029326-.0673685-.0076247-.1244445-.007742-.1815205-.0005865-.4030409.0003519-.8061988-.0010557-1.2092398-.0002346-.0571929-.0111437-.114269-.0173607-.171228-.0003519.0003508-.0036363.0033918-.0036363.0033918m8.0210439 1.5623275h-1.5822873v-1.5553217c.1243401-.0339181 1.33478-.0444444 1.5822873-.0123976zm-25.59847503 3.1953567c-.00035191-.5273684-.00058651-1.0547369-.00093842-1.5821053l-.00434017.0052632c.36891495-.0300585 1.47601172-.0166082 1.60410552.019883v1.5526316h-1.60410552zm-7.98828153 1.6118362h-1.55765396c-.03988269-.1392982-.05055718-1.3534502-.01595308-1.6032748.52246335-.002807 1.04809385-.005731 1.57360704-.008538l-.00527859-.0043275c.00293255.0578947.00879765.1157895.00856305.1736842-.00222874.4823392-.0056305.9645614-.00856305 1.4467836zm7.98730792-.0009707h-1.55753666c-.03894428-.1394152-.04891495-1.3605848-.01478005-1.6023392.52234604-.002924 1.04785923-.005731 1.57325513-.008538l-.00527859-.0043275c.00304985.1277193.00903225.2554386.00844574.3830409-.00152492.4125147-.00539589.8250293-.00844574 1.2374269z"/><path d="m11.2024047 20.746655h-1.62064517v-1.5791813l-.00434018.0052631c.39131965-.0318128 1.48070385-.017076 1.62005865.0265497v1.5518129z"/><path d="m11.2024047 22.3293684v-1.58269l-.0049267.0043274c.514956-.0011695 1.029912-.0025731 1.5447507-.0030409.0097361-.0001169.0195895.0099415.0468036.0249123-.0022288.5111111.0041055 1.0318129-.0042229 1.5520468h-1.5873314zm9.5704281-.0046783h-1.5791202v-.1732164c0-.4073684.0005865-.8146199-.0007038-1.2218714-.0002346-.0573099-.0095015-.1146198-.0148974-.1715789-.0002346.0003509-.0045747.0042105-.0048093.0044444.0220527-.0059649.0444574-.0173099.0667448-.0173099.5021701-.0010526 1.0043402-.0008187 1.5046335-.0008187.0405865.1276023.0552492 1.1907602.0235777 1.5850292 0-.0001169.0045747-.0046783.0045747-.0046783m-1.6009384-15.91174273c.0220528-.00643275.0442229-.01847953.066393-.01847953.5116715.00128655 1.0232258.00385965 1.5348974.00619883l-.0044575-.00491228v1.58269005l.0044575-.00479532h-1.5794722v-.17216374c0-.4071345.0005865-.81426901-.0008211-1.22140351-.0002346-.05695906-.0111437-.11380117-.0173607-.17052631-.0003519.00035087-.0036364.00339181-.0036364.00339181"/><path d="m28.8 30.312h1.573v-1.583h-1.573z"/><path d="m36.772129 3.20519298v4.74292398c-.1303225.03578947-4.5080352.04736842-4.7738416.01239766v-4.74035088c.131261-.03415204 4.4243988-.04853801 4.7738416-.01497076m-28.80951316.00166082v4.74245614c-.12398827.03473684-4.45759531.04900585-4.75730206.01590643-.03636363-.12315789-.05020528-4.46385964-.01524926-4.74116959.12480938-.03906432 4.40140762-.05614035 4.77255132-.01719298m-.00143109 28.6991016v4.7802434h-4.75753666c-.03401759-.1334503-.04785923-4.4463158-.01642228-4.7459649.00410557-.0040935.00809384-.0083041.01243401-.0123976.00422288-.0038597.00844575-.0101755.01325514-.0105264.04633431-.0043274.09290322-.0108772.13935483-.0108772 1.52903226-.0005847 3.05794722-.0004678 4.60891496-.0004773"/></g></svg>