<svg height="31" viewBox="0 0 90 31" width="90" xmlns="http://www.w3.org/2000/svg"><path d="m36.2610875 89.6268906v-1.2186629c-.7163161.8547447-1.98063 1.7101754-3.5822227 1.7101754-2.1916701 0-3.2870233-1.2378706-3.2870233-3.4426456v-7.4738715c0-.1221064.0928319-.2212321.2071855-.2212321h1.7978569c.1146748 0 .2071856.0991257.2071856.2212321v6.5964891c0 1.6875377.8011176 2.2274126 2.0651103 2.2274126 1.1168748 0 2.0859894-.6976528 2.5919077-1.4176003v-7.4063014c0-.1221064.0928319-.2212321.2075068-.2212321h1.7978569c.1143535 0 .2071855.0991257.2071855.2212321v10.4250046c0 .1221064-.092832.2215751-.2071855.2215751h-1.7978569c-.1146749 0-.2075068-.0994687-.2075068-.2215751zm7.0787764-1.28589v5.4258455c0 .1221063-.0925108.221232-.2071856.221232h-1.7978569c-.1143536 0-.2071855-.0991257-.2071855-.221232v-14.5649601c0-.1221064.0928319-.2212321.2071855-.2212321h1.7978569c.1146748 0 .2071856.0991257.2071856.2212321v1.2639384c.7587168-1.0800928 1.9388716-1.7551079 3.2664654-1.7551079 2.633666 0 4.5089365 2.1149101 4.5089365 5.692696 0 3.5770998-1.8752705 5.7149906-4.5089365 5.7149906-1.2855142 0-2.4232682-.6300826-3.2664654-1.7774025zm5.4995727-3.9375881c0 2.1149101-1.1377541 3.6223752-2.8864646 3.6223752-1.0327157 0-2.128069-.6750151-2.6131081-1.4851704v-4.2973904c.5059183-.8098123 1.5803924-1.439895 2.6131081-1.439895 1.7487105 0 2.8864646 1.4848275 2.8864646 3.6000806zm11.3740387 5.4448817c-.1143536 0-.2075068-.0991257-.2075068-.2215751v-6.6187837c0-1.7098325-.8004752-2.204775-2.0435886-2.204775-1.1380753 0-2.1068686.7202905-2.6127869 1.440238v7.3833207c0 .1224494-.092832.2215751-.2071856.2215751h-1.7984993c-.1140324 0-.2068644-.0991257-.2068644-.2215751v-14.56496c0-.1221064.092832-.2212321.2068644-.2212321h1.7984993c.1143536 0 .2071856.0991257.2071856.2212321v5.3815991c.6742365-.8554308 1.9806299-1.7328132 3.5819014-1.7328132 2.1916701 0 3.2870234 1.21489 3.2870234 3.4426456v7.4735285c0 .1224494-.092832.2215751-.2068644.2215751zm4.048085-5.4448817c0-3.1277758 1.9809512-5.692696 5.2262162-5.692696 3.2449438 0 5.2255737 2.5649202 5.2255737 5.692696 0 3.1044521-1.9806299 5.7149906-5.2255737 5.7149906-3.245265 0-5.2262162-2.6105385-5.2262162-5.7149906zm8.1550815 0c0 1.9348375-1.0327157 3.6223752-2.9288653 3.6223752-1.8755917 0-2.9291866-1.6875377-2.9291866-3.6223752 0-1.9125428 1.0535949-3.6000806 2.9291866-3.6000806 1.8961496 0 2.9288653 1.6875378 2.9288653 3.6000806zm4.3395582 5.2234781v-14.56496c0-.1224494.092832-.2212321.2071856-.2212321h1.7978569c.1146748 0 .2075068.0987827.2075068.2212321v14.56496c0 .1221064-.092832.2215751-.2075068.2215751h-1.7978569c-.1143536 0-.2071856-.0994687-.2071856-.2215751zm12.0312507.0001372v-1.2639383c-.779596 1.0800927-1.9385503 1.7551078-3.2658229 1.7551078-2.5919077 0-4.5095789-2.1149101-4.5095789-5.7146476 0-3.5105588 1.8961496-5.693039 4.5095789-5.693039 1.285193 0 2.4650266.607788 3.2658229 1.7777456v-5.4265315c0-.1221064.092832-.2212321.2071856-.2212321h1.7978569c.1146748 0 .2075068.0991257.2075068.2212321v14.565303c0 .1221064-.092832.2212321-.2075068.2212321h-1.7978569c-.1143536 0-.2071856-.0991257-.2071856-.2212321zm0-3.0636356c-.4847179.8094693-1.5803923 1.4625327-2.6131081 1.4625327-1.7699109 0-2.8864645-1.5078081-2.8864645-3.6223752 0-2.0926154 1.1165536-3.6000806 2.8864645-3.6000806 1.0327158 0 2.1283902.6520344 2.6131081 1.4621898zm-74.8183755 10.9570935c.5107366-.1608649 1.0465281.149889 1.1971794.6949088.1509724.5450198-.1406935 1.1174793-.6511088 1.2786872-1.0645164.3357925-2.1322448.5059183-3.1739547.5059183h-.1272023c-1.0484554 0-2.12325067-.1718407-3.19419134-.5124352-.51009411-.1615509-.80079637-.7346964-.64918149-1.2793732.15193609-.5446768.6886913-.8544017 1.1984642-.6931938.8926647.2836572 1.78243843.4270293 2.64490863.4270293h.1272023c.8563671 0 1.7406801-.1420001 2.6278841-.4215414zm7.0565482-20.9440586c.9148288 2.8444615.5878289 6.6616582-.8762826 10.2174924-1.9982969 4.851671-5.6242052 8.2219446-8.8354211 8.2222876-.0154184 0-.0305157 0-.0456129-.000343-.0154185.000343-.0308369.000343-.0459342.000343-3.2112159 0-6.83712419-3.3702736-8.8354211-8.2222876-1.46411145-3.5551482-1.79079011-7.3723449-.87628259-10.2168064l-.0019273-.000686c1.3613217-4.5316562 5.28307172-7.5764271 9.75860149-7.5764271 4.463966 0 8.375437 3.0293361 9.7467165 7.5414416.0016061.0058309.0041758.0113188.0064243.0171498.0006425.0027439.0012849.0054879.0022486.0082319.0009636.0034299.0022485.0061739.0032121.0096038zm-2.3464972 9.5270425c-.6273386 1.5225569-1.4374503 2.8887079-2.3355757 4.0130471.6488603-2.7202972.3363152-6.2339429-1.0686922-9.6457189-.7343042-1.7832335-1.7079158-3.3867374-2.8376394-4.6938931 1.7679836-1.5253009 3.6088838-2.0233304 5.0318793-1.3208756.9116166.4496671 1.6147627 1.3706099 2.0333097 2.6633599.7930871 2.4479587.4853603 5.8065704-.8232817 8.9840806zm-14.82196011 0c-1.30832074-3.1771672-1.61604754-6.5357789-.82328163-8.9840806.41886822-1.29275 1.12201432-2.2136928 2.03330967-2.6633599 1.42331676-.7021118 3.26421687-.2040823 5.03187927 1.3208756-1.13004476 1.3074987-2.10333517 2.9110026-2.8373182 4.6938931-1.40532855 3.411776-1.71787363 6.9254217-1.06869214 9.6460619-.89844662-1.1246822-1.70855831-2.4908332-2.33589697-4.0133901zm8.73744961 6.8835762c-.4085892.2016814-.8550822.306981-1.3263089.3134979-.471548-.0065169-.9177197-.1118165-1.32630897-.3134979-2.73934673-1.3514022-3.2934477-6.7669578-1.21002804-11.8261411.66074534-1.6048758 1.52899751-3.0451139 2.53440971-4.2109555 1.0060546 1.1661846 1.8765553 2.6047077 2.5382643 4.2109555 2.0834196 5.0591833 1.5293186 10.4747389-1.2100281 11.8261411zm-1.3263089 1.0814648.0006424.074773-.0006424.075459-.0009637-.075459zm5.0453704-21.6313529c-1.6231143-.0720291-3.3920616.6691842-5.0450492 2.1468087-1.65298761-1.4779675-3.42257733-2.2198667-5.0463341-2.1478377 1.43231087-1.0934696 3.18102142-1.7211513 5.0450492-1.7211513 1.8646703 0 3.6140232.6283677 5.0463341 1.7221803z" fill="#49cc68" fill-rule="evenodd" transform="translate(-1 -69)"/></svg>