<svg height="24" viewBox="0 0 20 24" width="20" xmlns="http://www.w3.org/2000/svg"><path d="m15.4699409 12.0752972c-.0257493-2.86858428 2.3431876-4.26415987 2.4515123-4.32913246-1.341628-1.9607481-3.4211071-2.22864877-4.1518549-2.25000962-1.7465138-.18423734-3.440641 1.04757173-4.3303242 1.04757173-.90744133 0-2.2774824-1.02977102-3.75407235-.99950982-1.90012177.02937117-3.67771232 1.1321251-4.65263461 2.84455331-2.0119981 3.49160906-.51143465 8.62266346 1.41621225 11.44496586.9642674 1.3831151 2.09102185 2.9255465 3.56583599 2.8712544 1.44284947-.0587424 1.98180925-.9220767 3.72299559-.9220767 1.72520403 0 2.23131123.9220767 3.73542633.8864753 1.5485104-.023141 2.5234327-1.3875653 3.4539596-2.7831409 1.1143238-1.582483 1.5618291-3.1444952 1.5795872-3.2245984-.0355163-.0115705-3.0064543-1.1481458-3.0366432-4.5863527m-2.8413035-8.43575603c.776031-.97280875 1.3069996-2.29629147 1.159607-3.63935497-1.1232028.04984199-2.5278723.77878102-3.3367559 1.73022892-.71565334.8384134-1.35494665 2.21262813-1.18979587 3.50495961 1.26171637.09434376 2.55717317-.63815542 3.36694477-1.59583356" fill="#bccad8" fill-rule="evenodd" transform="translate(.812 .59)"/></svg>